<svg width="288" height="148" viewBox="0 0 288 148" fill="none" xmlns="http://www.w3.org/2000/svg">
<rect width="288" height="148" rx="28" fill="white"/>
<path d="M24.514 57.168C23.562 57.168 22.7967 56.902 22.218 56.37C21.6487 55.8287 21.364 55.0633 21.364 54.074H23.156C23.1653 54.5313 23.2727 54.8953 23.478 55.166C23.6833 55.4367 24.0147 55.572 24.472 55.572C24.9013 55.572 25.214 55.446 25.41 55.194C25.606 54.9327 25.704 54.592 25.704 54.172V47.2H27.496V54.172C27.496 55.1333 27.2253 55.8753 26.684 56.398C26.152 56.9113 25.4287 57.168 24.514 57.168ZM31.7552 57.168C31.1578 57.168 30.6678 57.0747 30.2852 56.888C29.9025 56.692 29.6178 56.4353 29.4312 56.118C29.2445 55.8007 29.1512 55.4507 29.1512 55.068C29.1512 54.424 29.4032 53.9013 29.9072 53.5C30.4112 53.0987 31.1672 52.898 32.1752 52.898H33.9392V52.73C33.9392 52.254 33.8038 51.904 33.5332 51.68C33.2625 51.456 32.9265 51.344 32.5252 51.344C32.1612 51.344 31.8438 51.4327 31.5732 51.61C31.3025 51.778 31.1345 52.03 31.0692 52.366H29.3192C29.3658 51.862 29.5338 51.4233 29.8232 51.05C30.1218 50.6767 30.5045 50.392 30.9712 50.196C31.4378 49.9907 31.9605 49.888 32.5392 49.888C33.5285 49.888 34.3078 50.1353 34.8772 50.63C35.4465 51.1247 35.7312 51.8247 35.7312 52.73V57H34.2052L34.0372 55.88C33.8318 56.2533 33.5425 56.5613 33.1692 56.804C32.8052 57.0467 32.3338 57.168 31.7552 57.168ZM32.1612 55.768C32.6745 55.768 33.0712 55.6 33.3512 55.264C33.6405 54.928 33.8225 54.5127 33.8972 54.018H32.3712C31.8952 54.018 31.5545 54.1067 31.3492 54.284C31.1438 54.452 31.0412 54.662 31.0412 54.914C31.0412 55.1847 31.1438 55.3947 31.3492 55.544C31.5545 55.6933 31.8252 55.768 32.1612 55.768ZM37.4413 57V50.056H39.0233L39.1633 51.232C39.3779 50.8213 39.6859 50.4947 40.0873 50.252C40.4979 50.0093 40.9786 49.888 41.5293 49.888C42.3879 49.888 43.0553 50.1587 43.5312 50.7C44.0072 51.2413 44.2452 52.0347 44.2452 53.08V57H42.4533V53.248C42.4533 52.6507 42.3319 52.1933 42.0893 51.876C41.8466 51.5587 41.4686 51.4 40.9553 51.4C40.4513 51.4 40.0359 51.5773 39.7093 51.932C39.3919 52.2867 39.2333 52.7813 39.2333 53.416V57H37.4413ZM48.8468 50.644L50.2748 47.2H51.4928L50.7368 50.644H48.8468ZM54.0922 57V49.244L52.4822 49.622V48.25L54.8482 47.2H55.9542V57H54.0922ZM61.3123 57.168C60.6403 57.168 60.0337 57.0513 59.4923 56.818C58.951 56.5753 58.517 56.2347 58.1903 55.796C57.873 55.3573 57.7143 54.8487 57.7143 54.27C57.7143 53.6727 57.8683 53.15 58.1763 52.702C58.4937 52.254 58.909 51.932 59.4223 51.736C58.9743 51.54 58.6197 51.26 58.3583 50.896C58.097 50.5227 57.9663 50.1073 57.9663 49.65C57.9663 49.1833 58.0923 48.754 58.3443 48.362C58.5963 47.9607 58.9697 47.6387 59.4643 47.396C59.9683 47.1533 60.5843 47.032 61.3123 47.032C62.0403 47.032 62.6517 47.1533 63.1463 47.396C63.641 47.6387 64.0143 47.9607 64.2663 48.362C64.5183 48.754 64.6443 49.1833 64.6443 49.65C64.6443 50.098 64.509 50.5133 64.2383 50.896C63.977 51.2693 63.627 51.5493 63.1883 51.736C63.711 51.932 64.1263 52.254 64.4343 52.702C64.7423 53.15 64.8963 53.6727 64.8963 54.27C64.8963 54.8487 64.7377 55.3573 64.4203 55.796C64.103 56.2347 63.669 56.5753 63.1183 56.818C62.577 57.0513 61.975 57.168 61.3123 57.168ZM61.3123 51.204C61.7977 51.204 62.1803 51.078 62.4603 50.826C62.7403 50.574 62.8803 50.252 62.8803 49.86C62.8803 49.4307 62.7403 49.0947 62.4603 48.852C62.1897 48.6093 61.807 48.488 61.3123 48.488C60.8083 48.488 60.421 48.6093 60.1503 48.852C59.8797 49.0947 59.7443 49.4307 59.7443 49.86C59.7443 50.2613 59.8797 50.588 60.1503 50.84C60.4303 51.0827 60.8177 51.204 61.3123 51.204ZM61.3123 55.67C61.9097 55.67 62.3623 55.5253 62.6703 55.236C62.9783 54.9373 63.1323 54.564 63.1323 54.116C63.1323 53.6213 62.969 53.234 62.6423 52.954C62.325 52.674 61.8817 52.534 61.3123 52.534C60.743 52.534 60.2903 52.674 59.9543 52.954C59.6277 53.234 59.4643 53.6213 59.4643 54.116C59.4643 54.564 59.6183 54.9373 59.9263 55.236C60.2437 55.5253 60.7057 55.67 61.3123 55.67Z" fill="black"/>
<path d="M190.952 57V47.2H194.298C195.446 47.2 196.389 47.4053 197.126 47.816C197.873 48.2173 198.423 48.7867 198.778 49.524C199.142 50.252 199.324 51.1107 199.324 52.1C199.324 53.0893 199.142 53.9527 198.778 54.69C198.423 55.418 197.873 55.9873 197.126 56.398C196.389 56.7993 195.446 57 194.298 57H190.952ZM192.744 55.46H194.214C195.035 55.46 195.684 55.3293 196.16 55.068C196.636 54.7973 196.977 54.4147 197.182 53.92C197.387 53.416 197.49 52.8093 197.49 52.1C197.49 51.4 197.387 50.798 197.182 50.294C196.977 49.79 196.636 49.4027 196.16 49.132C195.684 48.8613 195.035 48.726 194.214 48.726H192.744V55.46ZM204.237 57.168C203.537 57.168 202.916 57.0187 202.375 56.72C201.834 56.4213 201.409 56.0013 201.101 55.46C200.793 54.9187 200.639 54.2933 200.639 53.584C200.639 52.8653 200.788 52.226 201.087 51.666C201.395 51.106 201.815 50.672 202.347 50.364C202.888 50.0467 203.523 49.888 204.251 49.888C204.932 49.888 205.534 50.0373 206.057 50.336C206.58 50.6347 206.986 51.0453 207.275 51.568C207.574 52.0813 207.723 52.6553 207.723 53.29C207.723 53.3927 207.718 53.5 207.709 53.612C207.709 53.724 207.704 53.8407 207.695 53.962H202.417C202.454 54.5033 202.641 54.928 202.977 55.236C203.322 55.544 203.738 55.698 204.223 55.698C204.587 55.698 204.89 55.6187 205.133 55.46C205.385 55.292 205.572 55.0773 205.693 54.816H207.513C207.382 55.2547 207.163 55.656 206.855 56.02C206.556 56.3747 206.183 56.6547 205.735 56.86C205.296 57.0653 204.797 57.168 204.237 57.168ZM204.251 51.344C203.812 51.344 203.425 51.47 203.089 51.722C202.753 51.9647 202.538 52.338 202.445 52.842H205.903C205.875 52.3847 205.707 52.0207 205.399 51.75C205.091 51.4793 204.708 51.344 204.251 51.344ZM212.632 57.168C211.923 57.168 211.298 57.014 210.756 56.706C210.215 56.398 209.786 55.9687 209.468 55.418C209.16 54.8673 209.006 54.2373 209.006 53.528C209.006 52.8187 209.16 52.1887 209.468 51.638C209.786 51.0873 210.215 50.658 210.756 50.35C211.298 50.042 211.923 49.888 212.632 49.888C213.519 49.888 214.266 50.1213 214.872 50.588C215.479 51.0453 215.866 51.68 216.034 52.492H214.144C214.051 52.156 213.864 51.8947 213.584 51.708C213.314 51.512 212.992 51.414 212.618 51.414C212.124 51.414 211.704 51.6007 211.358 51.974C211.013 52.3473 210.84 52.8653 210.84 53.528C210.84 54.1907 211.013 54.7087 211.358 55.082C211.704 55.4553 212.124 55.642 212.618 55.642C212.992 55.642 213.314 55.5487 213.584 55.362C213.864 55.1753 214.051 54.9093 214.144 54.564H216.034C215.866 55.348 215.479 55.978 214.872 56.454C214.266 56.93 213.519 57.168 212.632 57.168ZM220.513 50.644L221.941 47.2H223.159L222.403 50.644H220.513ZM225.758 57V49.244L224.148 49.622V48.25L226.514 47.2H227.62V57H225.758ZM232.866 57.168C232.185 57.168 231.611 57.0373 231.144 56.776C230.678 56.5053 230.314 56.1553 230.052 55.726C229.791 55.2967 229.637 54.8347 229.59 54.34H231.256C231.331 54.7693 231.508 55.1007 231.788 55.334C232.078 55.5673 232.442 55.684 232.88 55.684C233.506 55.684 234.01 55.3993 234.392 54.83C234.775 54.2513 234.98 53.374 235.008 52.198C234.784 52.5807 234.444 52.898 233.986 53.15C233.538 53.402 233.044 53.528 232.502 53.528C231.961 53.528 231.452 53.3973 230.976 53.136C230.5 52.8747 230.113 52.506 229.814 52.03C229.516 51.554 229.366 50.994 229.366 50.35C229.366 49.762 229.511 49.216 229.8 48.712C230.09 48.208 230.491 47.802 231.004 47.494C231.518 47.186 232.12 47.032 232.81 47.032C233.548 47.032 234.168 47.1673 234.672 47.438C235.176 47.7087 235.578 48.0727 235.876 48.53C236.184 48.9873 236.404 49.496 236.534 50.056C236.674 50.616 236.744 51.19 236.744 51.778C236.744 52.87 236.59 53.822 236.282 54.634C235.984 55.4367 235.54 56.062 234.952 56.51C234.374 56.9487 233.678 57.168 232.866 57.168ZM232.922 52.016C233.268 52.016 233.58 51.9413 233.86 51.792C234.14 51.6333 234.36 51.428 234.518 51.176C234.677 50.9147 234.756 50.6253 234.756 50.308C234.756 49.804 234.579 49.3887 234.224 49.062C233.879 48.7353 233.44 48.572 232.908 48.572C232.386 48.572 231.952 48.7353 231.606 49.062C231.261 49.3793 231.088 49.7853 231.088 50.28C231.088 50.8027 231.261 51.2227 231.606 51.54C231.952 51.8573 232.39 52.016 232.922 52.016Z" fill="black"/>
<rect x="44" y="79" width="223" height="8" fill="#C4C4C4"/>
<rect x="44" y="79" width="169" height="8" fill="#0DA756"/>
<circle cx="47.5" cy="82.5" r="10" fill="#0064FF" stroke="black"/>
<circle cx="212.5" cy="82.5" r="10" fill="#FFC700" stroke="black"/>
</svg>
